<svg width="72" height="70" viewBox="0 0 72 70" fill="none" xmlns="http://www.w3.org/2000/svg">
<g clip-path="url(#clip0_37_1044)">
<g filter="url(#filter0_d_37_1044)">
<g filter="url(#filter1_i_37_1044)">
<ellipse cx="34.5864" cy="30.3882" rx="4.43415" ry="4.43415" fill="black" fill-opacity="0.8"/>
</g>
<g filter="url(#filter2_i_37_1044)">
<path d="M17.5305 28.0173L21.1663 20.3372C22.8467 16.7876 25.5351 13.8113 28.8959 11.7795L34.1394 8.60953C36.9305 6.92224 40.3328 6.58111 43.4033 7.68072C45.8702 8.56419 47.9336 10.3112 49.2119 12.5987L55.3767 23.6309L47.7788 12.6812C46.5158 10.8612 44.5959 9.60221 42.4233 9.16944C40.4282 8.77202 38.3568 9.09883 36.5809 10.0912L28.757 14.4632C25.7102 16.1658 23.162 18.6361 21.3656 21.6286L17.5305 28.0173Z" fill="black" fill-opacity="0.8"/>
<circle cx="38.0536" cy="8.66266" r="4.43415" transform="rotate(-37.473 38.0536 8.66266)" fill="black" fill-opacity="0.8"/>
<path d="M17.5305 28.0173L21.1663 20.3372C22.8467 16.7876 25.5351 13.8113 28.8959 11.7795L34.1394 8.60953C36.9305 6.92224 40.3328 6.58111 43.4033 7.68072C45.8702 8.56419 47.9336 10.3112 49.2119 12.5987L55.3768 23.6309L47.7788 12.6812C46.5159 10.8612 44.5959 9.60221 42.4233 9.16943C40.4282 8.77202 38.3568 9.09883 36.5809 10.0912L28.757 14.4632C25.7102 16.1658 23.162 18.6361 21.3656 21.6286L17.5305 28.0173Z" fill="black" fill-opacity="0.8"/>
</g>
<g filter="url(#filter3_i_37_1044)">
<path d="M46.8232 17.8747L51.7242 24.8161C53.9893 28.0244 55.2598 31.8285 55.3771 35.7541L55.5602 41.8785C55.6576 45.1385 54.2823 48.2691 51.8154 50.4025C49.8334 52.1165 47.2977 53.0547 44.6774 53.0434L32.0395 52.9891L45.3099 51.7549C47.5157 51.5497 49.5558 50.4966 51.0006 48.8173C52.3274 47.2752 53.061 45.3107 53.0698 43.2764L53.1083 34.3139C53.1233 30.8236 52.2246 27.3902 50.5016 24.3549L46.8232 17.8747Z" fill="black" fill-opacity="0.8"/>
<circle cx="53.5898" cy="45.2611" r="4.43415" transform="rotate(81.9698 53.5898 45.2611)" fill="black" fill-opacity="0.8"/>
<path d="M46.8232 17.8747L51.7242 24.8161C53.9893 28.0244 55.2598 31.8285 55.3771 35.7541L55.5602 41.8785C55.6576 45.1385 54.2823 48.2691 51.8154 50.4025C49.8334 52.1165 47.2977 53.0547 44.6774 53.0434L32.0395 52.9891L45.3099 51.7549C47.5157 51.5497 49.5558 50.4966 51.0006 48.8173C52.3274 47.2752 53.061 45.3107 53.0698 43.2764L53.1083 34.3139C53.1233 30.8236 52.2246 27.3902 50.5016 24.3549L46.8232 17.8747Z" fill="black" fill-opacity="0.8"/>
</g>
<g filter="url(#filter4_i_37_1044)">
<path d="M37.8165 49.8509L29.3379 49.2876C25.4193 49.0273 21.664 47.619 18.5404 45.2384L13.6672 41.5243C11.0733 39.5473 9.50722 36.5076 9.40314 33.2479C9.31953 30.6289 10.1873 28.0682 11.846 26.0397L19.8456 16.2559L12.4487 27.3424C11.2192 29.1852 10.7528 31.4332 11.1476 33.6131C11.5102 35.6148 12.5745 37.4217 14.1494 38.7094L21.0879 44.3826C23.7899 46.5919 27.023 48.0556 30.466 48.6283L37.8165 49.8509Z" fill="black" fill-opacity="0.8"/>
<circle cx="12.2801" cy="37.8638" r="4.43415" transform="rotate(-149.005 12.2801 37.8638)" fill="black" fill-opacity="0.8"/>
<path d="M37.8165 49.8509L29.3379 49.2876C25.4193 49.0273 21.664 47.619 18.5404 45.2384L13.6672 41.5243C11.0733 39.5473 9.50722 36.5076 9.40314 33.2479C9.31953 30.6289 10.1873 28.0682 11.846 26.0397L19.8456 16.2559L12.4487 27.3424C11.2192 29.1852 10.7528 31.4332 11.1476 33.6131C11.5102 35.6148 12.5745 37.4217 14.1494 38.7094L21.0879 44.3826C23.7899 46.5919 27.023 48.0556 30.466 48.6283L37.8165 49.8509Z" fill="black" fill-opacity="0.8"/>
</g>
<g filter="url(#filter5_i_37_1044)">
<ellipse cx="34.2908" cy="29.797" rx="4.43415" ry="4.43415" fill="white"/>
</g>
<g filter="url(#filter6_i_37_1044)">
<path d="M17.2349 27.4261L20.8708 19.746C22.5512 16.1964 25.2395 13.22 28.6004 11.1882L33.8439 8.01832C36.6349 6.33102 40.0373 5.98989 43.1077 7.0895C45.5746 7.97297 47.6381 9.72003 48.9163 12.0075L55.0812 23.0397L47.4832 12.09C46.2203 10.27 44.3004 9.01099 42.1278 8.57822C40.1327 8.1808 38.0612 8.50761 36.2854 9.49997L28.4615 13.872C25.4147 15.5746 22.8664 18.0449 21.0701 21.0373L17.2349 27.4261Z" fill="white"/>
<circle cx="37.7581" cy="8.07144" r="4.43415" transform="rotate(-37.473 37.7581 8.07144)" fill="white"/>
<path d="M17.2349 27.4261L20.8708 19.746C22.5512 16.1964 25.2395 13.22 28.6004 11.1882L33.8439 8.01831C36.6349 6.33102 40.0373 5.98989 43.1077 7.0895C45.5746 7.97297 47.6381 9.72003 48.9163 12.0075L55.0812 23.0397L47.4832 12.09C46.2203 10.27 44.3004 9.01099 42.1278 8.57822C40.1327 8.1808 38.0612 8.50761 36.2854 9.49997L28.4615 13.872C25.4147 15.5746 22.8664 18.0449 21.0701 21.0373L17.2349 27.4261Z" fill="white"/>
</g>
<g filter="url(#filter7_i_37_1044)">
<path d="M46.5277 17.2835L51.4286 24.2249C53.6938 27.4332 54.9643 31.2373 55.0816 35.1628L55.2647 41.2873C55.3621 44.5473 53.9867 47.6779 51.5198 49.8113C49.5379 51.5253 47.0021 52.4635 44.3818 52.4522L31.744 52.3979L45.0144 51.1636C47.2201 50.9585 49.2603 49.9054 50.7051 48.2261C52.0319 46.684 52.7655 44.7194 52.7743 42.6851L52.8127 33.7227C52.8277 30.2324 51.9291 26.799 50.2061 23.7637L46.5277 17.2835Z" fill="white"/>
<ellipse cx="53.2943" cy="44.6699" rx="4.43415" ry="4.43415" transform="rotate(81.9698 53.2943 44.6699)" fill="white"/>
<path d="M46.5277 17.2835L51.4286 24.2249C53.6938 27.4332 54.9643 31.2373 55.0816 35.1628L55.2647 41.2873C55.3621 44.5473 53.9867 47.6779 51.5198 49.8113C49.5379 51.5253 47.0021 52.4635 44.3818 52.4522L31.744 52.3979L45.0144 51.1636C47.2201 50.9585 49.2603 49.9054 50.7051 48.2261C52.0319 46.684 52.7655 44.7194 52.7743 42.6851L52.8127 33.7227C52.8277 30.2324 51.9291 26.799 50.2061 23.7637L46.5277 17.2835Z" fill="white"/>
</g>
<g filter="url(#filter8_i_37_1044)">
<path d="M37.5209 49.2597L29.0424 48.6964C25.1237 48.4361 21.3684 47.0278 18.2449 44.6472L13.3717 40.9331C10.7778 38.9561 9.21168 35.9164 9.10761 32.6567C9.024 30.0377 9.89178 27.477 11.5504 25.4484L19.5501 15.6646L12.1532 26.7512C10.9237 28.594 10.4573 30.842 10.8521 33.0218C11.2147 35.0236 12.279 36.8305 13.8538 38.1182L20.7923 43.7914C23.4944 46.0007 26.7275 47.4644 30.1705 48.0371L37.5209 49.2597Z" fill="white"/>
<circle cx="11.9846" cy="37.2726" r="4.43415" transform="rotate(-149.005 11.9846 37.2726)" fill="white"/>
<path d="M37.5209 49.2597L29.0424 48.6964C25.1237 48.4361 21.3684 47.0278 18.2449 44.6472L13.3717 40.9331C10.7778 38.9561 9.21168 35.9164 9.10761 32.6567C9.024 30.0377 9.89178 27.477 11.5504 25.4484L19.5501 15.6646L12.1532 26.7512C10.9237 28.594 10.4573 30.842 10.8521 33.0218C11.2147 35.0236 12.279 36.8305 13.8538 38.1182L20.7923 43.7914C23.4944 46.0007 26.7275 47.4644 30.1705 48.0371L37.5209 49.2597Z" fill="white"/>
</g>
<g filter="url(#filter9_i_37_1044)">
<circle cx="33.9952" cy="29.2058" r="4.43415" fill="#4B7D3E"/>
</g>
<g filter="url(#filter10_i_37_1044)">
<path d="M16.9393 26.8349L20.5751 19.1548C22.2556 15.6051 24.9439 12.6288 28.3048 10.597L33.5483 7.4271C36.3393 5.7398 39.7416 5.39867 42.8121 6.49829C45.279 7.38175 47.3424 9.12881 48.6207 11.4162L54.7856 22.4485L47.1876 11.4988C45.9247 9.67874 44.0048 8.41977 41.8321 7.987C39.837 7.58958 37.7656 7.91639 35.9897 8.90875L28.1658 13.2808C25.119 14.9834 22.5708 17.4536 20.7744 20.4461L16.9393 26.8349Z" fill="#4B7D3E"/>
<circle cx="37.4624" cy="7.48023" r="4.43415" transform="rotate(-37.473 37.4624 7.48023)" fill="#4B7D3E"/>
<path d="M16.9393 26.8349L20.5751 19.1548C22.2556 15.6051 24.9439 12.6288 28.3048 10.597L33.5483 7.4271C36.3393 5.7398 39.7416 5.39868 42.8121 6.49829C45.279 7.38176 47.3424 9.12881 48.6207 11.4162L54.7856 22.4485L47.1876 11.4988C45.9247 9.67874 44.0048 8.41977 41.8321 7.987C39.837 7.58958 37.7656 7.91639 35.9897 8.90875L28.1658 13.2808C25.119 14.9834 22.5708 17.4536 20.7744 20.4461L16.9393 26.8349Z" fill="#4B7D3E"/>
</g>
<g filter="url(#filter11_i_37_1044)">
<path d="M46.232 16.6923L51.133 23.6337C53.3981 26.8419 54.6686 30.6461 54.7859 34.5716L54.969 40.6961C55.0664 43.9561 53.6911 47.0867 51.2242 49.22C49.2422 50.9341 46.7065 51.8722 44.0862 51.861L31.4484 51.8067L44.7187 50.5724C46.9245 50.3673 48.9646 49.3142 50.4094 47.6349C51.7362 46.0928 52.4699 44.1282 52.4786 42.0939L52.5171 33.1314C52.5321 29.6412 51.6334 26.2078 49.9104 23.1725L46.232 16.6923Z" fill="#4B7D3E"/>
<circle cx="52.9987" cy="44.0787" r="4.43415" transform="rotate(81.9698 52.9987 44.0787)" fill="#4B7D3E"/>
<path d="M46.232 16.6923L51.133 23.6337C53.3981 26.8419 54.6686 30.6461 54.7859 34.5716L54.969 40.6961C55.0664 43.9561 53.6911 47.0867 51.2242 49.22C49.2422 50.9341 46.7065 51.8722 44.0862 51.861L31.4484 51.8067L44.7187 50.5724C46.9245 50.3673 48.9646 49.3142 50.4094 47.6349C51.7362 46.0928 52.4699 44.1282 52.4786 42.0939L52.5171 33.1314C52.5321 29.6412 51.6334 26.2078 49.9104 23.1725L46.232 16.6923Z" fill="#4B7D3E"/>
</g>
<g filter="url(#filter12_i_37_1044)">
<path d="M37.2253 48.6685L28.7467 48.1052C24.8281 47.8449 21.0728 46.4366 17.9492 44.056L13.076 40.3419C10.4821 38.3649 8.91603 35.3252 8.81196 32.0655C8.72834 29.4465 9.59613 26.8858 11.2548 24.8572L19.2544 15.0734L11.8575 26.16C10.628 28.0028 10.1616 30.2508 10.5564 32.4306C10.919 34.4324 11.9833 36.2393 13.5582 37.527L20.4967 43.2002C23.1987 45.4095 26.4319 46.8732 29.8748 47.4459L37.2253 48.6685Z" fill="#4B7D3E"/>
<circle cx="11.6889" cy="36.6814" r="4.43415" transform="rotate(-149.005 11.6889 36.6814)" fill="#4B7D3E"/>
<path d="M37.2253 48.6685L28.7467 48.1052C24.8281 47.8449 21.0728 46.4366 17.9492 44.056L13.076 40.3419C10.4821 38.3649 8.91603 35.3252 8.81196 32.0655C8.72834 29.4465 9.59613 26.8858 11.2548 24.8572L19.2544 15.0734L11.8575 26.16C10.628 28.0028 10.1616 30.2508 10.5564 32.4306C10.919 34.4324 11.9833 36.2393 13.5582 37.527L20.4967 43.2002C23.1987 45.4095 26.4319 46.8732 29.8748 47.4459L37.2253 48.6685Z" fill="#4B7D3E"/>
</g>
</g>
</g>
<defs>
<filter id="filter0_d_37_1044" x="-4" y="0" width="79.2876" height="78" filterUnits="userSpaceOnUse" color-interpolation-filters="sRGB">
<feFlood flood-opacity="0" result="BackgroundImageFix"/>
<feColorMatrix in="SourceAlpha" type="matrix" values="0 0 0 0 0 0 0 0 0 0 0 0 0 0 0 0 0 0 127 0" result="hardAlpha"/>
<feOffset dy="4"/>
<feGaussianBlur stdDeviation="2"/>
<feComposite in2="hardAlpha" operator="out"/>
<feColorMatrix type="matrix" values="0 0 0 0 0 0 0 0 0 0 0 0 0 0 0 0 0 0 0.25 0"/>
<feBlend mode="normal" in2="BackgroundImageFix" result="effect1_dropShadow_37_1044"/>
<feBlend mode="normal" in="SourceGraphic" in2="effect1_dropShadow_37_1044" result="shape"/>
</filter>
<filter id="filter1_i_37_1044" x="30.1522" y="25.9541" width="8.86829" height="12.8683" filterUnits="userSpaceOnUse" color-interpolation-filters="sRGB">
<feFlood flood-opacity="0" result="BackgroundImageFix"/>
<feBlend mode="normal" in="SourceGraphic" in2="BackgroundImageFix" result="shape"/>
<feColorMatrix in="SourceAlpha" type="matrix" values="0 0 0 0 0 0 0 0 0 0 0 0 0 0 0 0 0 0 127 0" result="hardAlpha"/>
<feOffset dy="4"/>
<feGaussianBlur stdDeviation="2"/>
<feComposite in2="hardAlpha" operator="arithmetic" k2="-1" k3="1"/>
<feColorMatrix type="matrix" values="0 0 0 0 0 0 0 0 0 0 0 0 0 0 0 0 0 0 0.25 0"/>
<feBlend mode="normal" in2="shape" result="effect1_innerShadow_37_1044"/>
</filter>
<filter id="filter2_i_37_1044" x="17.5305" y="4.22827" width="37.8462" height="27.789" filterUnits="userSpaceOnUse" color-interpolation-filters="sRGB">
<feFlood flood-opacity="0" result="BackgroundImageFix"/>
<feBlend mode="normal" in="SourceGraphic" in2="BackgroundImageFix" result="shape"/>
<feColorMatrix in="SourceAlpha" type="matrix" values="0 0 0 0 0 0 0 0 0 0 0 0 0 0 0 0 0 0 127 0" result="hardAlpha"/>
<feOffset dy="4"/>
<feGaussianBlur stdDeviation="2"/>
<feComposite in2="hardAlpha" operator="arithmetic" k2="-1" k3="1"/>
<feColorMatrix type="matrix" values="0 0 0 0 0 0 0 0 0 0 0 0 0 0 0 0 0 0 0.25 0"/>
<feBlend mode="normal" in2="shape" result="effect1_innerShadow_37_1044"/>
</filter>
<filter id="filter3_i_37_1044" x="32.0396" y="17.8747" width="25.985" height="39.1688" filterUnits="userSpaceOnUse" color-interpolation-filters="sRGB">
<feFlood flood-opacity="0" result="BackgroundImageFix"/>
<feBlend mode="normal" in="SourceGraphic" in2="BackgroundImageFix" result="shape"/>
<feColorMatrix in="SourceAlpha" type="matrix" values="0 0 0 0 0 0 0 0 0 0 0 0 0 0 0 0 0 0 127 0" result="hardAlpha"/>
<feOffset dy="4"/>
<feGaussianBlur stdDeviation="2"/>
<feComposite in2="hardAlpha" operator="arithmetic" k2="-1" k3="1"/>
<feColorMatrix type="matrix" values="0 0 0 0 0 0 0 0 0 0 0 0 0 0 0 0 0 0 0.25 0"/>
<feBlend mode="normal" in2="shape" result="effect1_innerShadow_37_1044"/>
</filter>
<filter id="filter4_i_37_1044" x="7.84534" y="16.2559" width="29.9711" height="37.5951" filterUnits="userSpaceOnUse" color-interpolation-filters="sRGB">
<feFlood flood-opacity="0" result="BackgroundImageFix"/>
<feBlend mode="normal" in="SourceGraphic" in2="BackgroundImageFix" result="shape"/>
<feColorMatrix in="SourceAlpha" type="matrix" values="0 0 0 0 0 0 0 0 0 0 0 0 0 0 0 0 0 0 127 0" result="hardAlpha"/>
<feOffset dy="4"/>
<feGaussianBlur stdDeviation="2"/>
<feComposite in2="hardAlpha" operator="arithmetic" k2="-1" k3="1"/>
<feColorMatrix type="matrix" values="0 0 0 0 0 0 0 0 0 0 0 0 0 0 0 0 0 0 0.25 0"/>
<feBlend mode="normal" in2="shape" result="effect1_innerShadow_37_1044"/>
</filter>
<filter id="filter5_i_37_1044" x="29.8567" y="25.3629" width="8.86829" height="12.8683" filterUnits="userSpaceOnUse" color-interpolation-filters="sRGB">
<feFlood flood-opacity="0" result="BackgroundImageFix"/>
<feBlend mode="normal" in="SourceGraphic" in2="BackgroundImageFix" result="shape"/>
<feColorMatrix in="SourceAlpha" type="matrix" values="0 0 0 0 0 0 0 0 0 0 0 0 0 0 0 0 0 0 127 0" result="hardAlpha"/>
<feOffset dy="4"/>
<feGaussianBlur stdDeviation="2"/>
<feComposite in2="hardAlpha" operator="arithmetic" k2="-1" k3="1"/>
<feColorMatrix type="matrix" values="0 0 0 0 0 0 0 0 0 0 0 0 0 0 0 0 0 0 0.25 0"/>
<feBlend mode="normal" in2="shape" result="effect1_innerShadow_37_1044"/>
</filter>
<filter id="filter6_i_37_1044" x="17.235" y="3.63705" width="37.8462" height="27.789" filterUnits="userSpaceOnUse" color-interpolation-filters="sRGB">
<feFlood flood-opacity="0" result="BackgroundImageFix"/>
<feBlend mode="normal" in="SourceGraphic" in2="BackgroundImageFix" result="shape"/>
<feColorMatrix in="SourceAlpha" type="matrix" values="0 0 0 0 0 0 0 0 0 0 0 0 0 0 0 0 0 0 127 0" result="hardAlpha"/>
<feOffset dy="4"/>
<feGaussianBlur stdDeviation="2"/>
<feComposite in2="hardAlpha" operator="arithmetic" k2="-1" k3="1"/>
<feColorMatrix type="matrix" values="0 0 0 0 0 0 0 0 0 0 0 0 0 0 0 0 0 0 0.25 0"/>
<feBlend mode="normal" in2="shape" result="effect1_innerShadow_37_1044"/>
</filter>
<filter id="filter7_i_37_1044" x="31.744" y="17.2835" width="25.985" height="39.1688" filterUnits="userSpaceOnUse" color-interpolation-filters="sRGB">
<feFlood flood-opacity="0" result="BackgroundImageFix"/>
<feBlend mode="normal" in="SourceGraphic" in2="BackgroundImageFix" result="shape"/>
<feColorMatrix in="SourceAlpha" type="matrix" values="0 0 0 0 0 0 0 0 0 0 0 0 0 0 0 0 0 0 127 0" result="hardAlpha"/>
<feOffset dy="4"/>
<feGaussianBlur stdDeviation="2"/>
<feComposite in2="hardAlpha" operator="arithmetic" k2="-1" k3="1"/>
<feColorMatrix type="matrix" values="0 0 0 0 0 0 0 0 0 0 0 0 0 0 0 0 0 0 0.25 0"/>
<feBlend mode="normal" in2="shape" result="effect1_innerShadow_37_1044"/>
</filter>
<filter id="filter8_i_37_1044" x="7.5498" y="15.6646" width="29.9711" height="37.5951" filterUnits="userSpaceOnUse" color-interpolation-filters="sRGB">
<feFlood flood-opacity="0" result="BackgroundImageFix"/>
<feBlend mode="normal" in="SourceGraphic" in2="BackgroundImageFix" result="shape"/>
<feColorMatrix in="SourceAlpha" type="matrix" values="0 0 0 0 0 0 0 0 0 0 0 0 0 0 0 0 0 0 127 0" result="hardAlpha"/>
<feOffset dy="4"/>
<feGaussianBlur stdDeviation="2"/>
<feComposite in2="hardAlpha" operator="arithmetic" k2="-1" k3="1"/>
<feColorMatrix type="matrix" values="0 0 0 0 0 0 0 0 0 0 0 0 0 0 0 0 0 0 0.25 0"/>
<feBlend mode="normal" in2="shape" result="effect1_innerShadow_37_1044"/>
</filter>
<filter id="filter9_i_37_1044" x="29.561" y="24.7716" width="8.86829" height="12.8683" filterUnits="userSpaceOnUse" color-interpolation-filters="sRGB">
<feFlood flood-opacity="0" result="BackgroundImageFix"/>
<feBlend mode="normal" in="SourceGraphic" in2="BackgroundImageFix" result="shape"/>
<feColorMatrix in="SourceAlpha" type="matrix" values="0 0 0 0 0 0 0 0 0 0 0 0 0 0 0 0 0 0 127 0" result="hardAlpha"/>
<feOffset dy="4"/>
<feGaussianBlur stdDeviation="2"/>
<feComposite in2="hardAlpha" operator="arithmetic" k2="-1" k3="1"/>
<feColorMatrix type="matrix" values="0 0 0 0 0 0 0 0 0 0 0 0 0 0 0 0 0 0 0.25 0"/>
<feBlend mode="normal" in2="shape" result="effect1_innerShadow_37_1044"/>
</filter>
<filter id="filter10_i_37_1044" x="16.9393" y="3.04584" width="37.8462" height="27.789" filterUnits="userSpaceOnUse" color-interpolation-filters="sRGB">
<feFlood flood-opacity="0" result="BackgroundImageFix"/>
<feBlend mode="normal" in="SourceGraphic" in2="BackgroundImageFix" result="shape"/>
<feColorMatrix in="SourceAlpha" type="matrix" values="0 0 0 0 0 0 0 0 0 0 0 0 0 0 0 0 0 0 127 0" result="hardAlpha"/>
<feOffset dy="4"/>
<feGaussianBlur stdDeviation="2"/>
<feComposite in2="hardAlpha" operator="arithmetic" k2="-1" k3="1"/>
<feColorMatrix type="matrix" values="0 0 0 0 0 0 0 0 0 0 0 0 0 0 0 0 0 0 0.25 0"/>
<feBlend mode="normal" in2="shape" result="effect1_innerShadow_37_1044"/>
</filter>
<filter id="filter11_i_37_1044" x="31.4484" y="16.6923" width="25.985" height="39.1688" filterUnits="userSpaceOnUse" color-interpolation-filters="sRGB">
<feFlood flood-opacity="0" result="BackgroundImageFix"/>
<feBlend mode="normal" in="SourceGraphic" in2="BackgroundImageFix" result="shape"/>
<feColorMatrix in="SourceAlpha" type="matrix" values="0 0 0 0 0 0 0 0 0 0 0 0 0 0 0 0 0 0 127 0" result="hardAlpha"/>
<feOffset dy="4"/>
<feGaussianBlur stdDeviation="2"/>
<feComposite in2="hardAlpha" operator="arithmetic" k2="-1" k3="1"/>
<feColorMatrix type="matrix" values="0 0 0 0 0 0 0 0 0 0 0 0 0 0 0 0 0 0 0.25 0"/>
<feBlend mode="normal" in2="shape" result="effect1_innerShadow_37_1044"/>
</filter>
<filter id="filter12_i_37_1044" x="7.25415" y="15.0734" width="29.9711" height="37.5951" filterUnits="userSpaceOnUse" color-interpolation-filters="sRGB">
<feFlood flood-opacity="0" result="BackgroundImageFix"/>
<feBlend mode="normal" in="SourceGraphic" in2="BackgroundImageFix" result="shape"/>
<feColorMatrix in="SourceAlpha" type="matrix" values="0 0 0 0 0 0 0 0 0 0 0 0 0 0 0 0 0 0 127 0" result="hardAlpha"/>
<feOffset dy="4"/>
<feGaussianBlur stdDeviation="2"/>
<feComposite in2="hardAlpha" operator="arithmetic" k2="-1" k3="1"/>
<feColorMatrix type="matrix" values="0 0 0 0 0 0 0 0 0 0 0 0 0 0 0 0 0 0 0.25 0"/>
<feBlend mode="normal" in2="shape" result="effect1_innerShadow_37_1044"/>
</filter>
<clipPath id="clip0_37_1044">
<rect width="71.2876" height="70" fill="white"/>
</clipPath>
</defs>
</svg>
