<svg width="103" height="44" viewBox="0 0 103 44" fill="none" xmlns="http://www.w3.org/2000/svg">
<g filter="url(#filter0_i_37_1116)">
<path d="M27.62 35L32.66 9.8H37.34L32.3 35H27.62ZM33.056 24.344L33.812 20.348H42.272L41.552 24.344H33.056ZM44.612 35L38.528 22.688L42.416 20.528L49.616 35H44.612ZM42.488 22.868L38.024 22.328L49.148 9.8H54.404L42.488 22.868ZM52.827 35L57.867 9.8H77.487L76.695 13.652H61.719L60.495 19.844H67.947C70.539 19.844 72.507 20.408 73.851 21.536C75.219 22.64 75.903 24.26 75.903 26.396C75.903 28.196 75.435 29.732 74.499 31.004C73.563 32.276 72.219 33.26 70.467 33.956C68.715 34.652 66.615 35 64.167 35H52.827ZM58.191 31.4H64.671C66.663 31.4 68.223 30.992 69.351 30.176C70.503 29.336 71.079 28.196 71.079 26.756C71.079 25.604 70.683 24.764 69.891 24.236C69.123 23.708 67.911 23.444 66.255 23.444H59.775L58.191 31.4Z" fill="black" fill-opacity="0.8"/>
</g>
<g filter="url(#filter1_i_37_1116)">
<path d="M15.256 35.36C12.712 35.36 10.54 34.904 8.74 33.992C6.94 33.08 5.56 31.82 4.6 30.212C3.664 28.58 3.196 26.708 3.196 24.596C3.196 22.46 3.556 20.48 4.276 18.656C4.996 16.808 6.04 15.2 7.408 13.832C8.776 12.464 10.408 11.396 12.304 10.628C14.2 9.836 16.312 9.44 18.64 9.44C21.16 9.44 23.32 9.896 25.12 10.808C26.92 11.72 28.3 12.992 29.26 14.624C30.22 16.232 30.7 18.092 30.7 20.204C30.7 22.34 30.328 24.332 29.584 26.18C28.864 28.004 27.82 29.6 26.452 30.968C25.084 32.336 23.452 33.416 21.556 34.208C19.684 34.976 17.584 35.36 15.256 35.36ZM15.652 31.256C17.236 31.256 18.664 30.98 19.936 30.428C21.208 29.852 22.288 29.072 23.176 28.088C24.088 27.08 24.784 25.928 25.264 24.632C25.744 23.312 25.984 21.932 25.984 20.492C25.984 19.124 25.684 17.912 25.084 16.856C24.484 15.8 23.608 14.984 22.456 14.408C21.304 13.832 19.888 13.544 18.208 13.544C16.648 13.544 15.22 13.832 13.924 14.408C12.652 14.96 11.56 15.74 10.648 16.748C9.76 17.732 9.076 18.884 8.596 20.204C8.14 21.5 7.912 22.868 7.912 24.308C7.912 25.676 8.2 26.888 8.776 27.944C9.376 29 10.252 29.816 11.404 30.392C12.556 30.968 13.972 31.256 15.652 31.256Z" fill="black" fill-opacity="0.8"/>
</g>
<g filter="url(#filter2_i_37_1116)">
<path d="M26.62 35L31.66 9.8H36.34L31.3 35H26.62ZM32.056 24.344L32.812 20.348H41.272L40.552 24.344H32.056ZM43.612 35L37.528 22.688L41.416 20.528L48.616 35H43.612ZM41.488 22.868L37.024 22.328L48.148 9.8H53.404L41.488 22.868ZM51.827 35L56.867 9.8H76.487L75.695 13.652H60.719L59.495 19.844H66.947C69.539 19.844 71.507 20.408 72.851 21.536C74.219 22.64 74.903 24.26 74.903 26.396C74.903 28.196 74.435 29.732 73.499 31.004C72.563 32.276 71.219 33.26 69.467 33.956C67.715 34.652 65.615 35 63.167 35H51.827ZM57.191 31.4H63.671C65.663 31.4 67.223 30.992 68.351 30.176C69.503 29.336 70.079 28.196 70.079 26.756C70.079 25.604 69.683 24.764 68.891 24.236C68.123 23.708 66.911 23.444 65.255 23.444H58.775L57.191 31.4Z" fill="white"/>
</g>
<g filter="url(#filter3_i_37_1116)">
<path d="M14.256 35.36C11.712 35.36 9.54 34.904 7.74 33.992C5.94 33.08 4.56 31.82 3.6 30.212C2.664 28.58 2.196 26.708 2.196 24.596C2.196 22.46 2.556 20.48 3.276 18.656C3.996 16.808 5.04 15.2 6.408 13.832C7.776 12.464 9.408 11.396 11.304 10.628C13.2 9.836 15.312 9.44 17.64 9.44C20.16 9.44 22.32 9.896 24.12 10.808C25.92 11.72 27.3 12.992 28.26 14.624C29.22 16.232 29.7 18.092 29.7 20.204C29.7 22.34 29.328 24.332 28.584 26.18C27.864 28.004 26.82 29.6 25.452 30.968C24.084 32.336 22.452 33.416 20.556 34.208C18.684 34.976 16.584 35.36 14.256 35.36ZM14.652 31.256C16.236 31.256 17.664 30.98 18.936 30.428C20.208 29.852 21.288 29.072 22.176 28.088C23.088 27.08 23.784 25.928 24.264 24.632C24.744 23.312 24.984 21.932 24.984 20.492C24.984 19.124 24.684 17.912 24.084 16.856C23.484 15.8 22.608 14.984 21.456 14.408C20.304 13.832 18.888 13.544 17.208 13.544C15.648 13.544 14.22 13.832 12.924 14.408C11.652 14.96 10.56 15.74 9.648 16.748C8.76 17.732 8.076 18.884 7.596 20.204C7.14 21.5 6.912 22.868 6.912 24.308C6.912 25.676 7.2 26.888 7.776 27.944C8.376 29 9.252 29.816 10.404 30.392C11.556 30.968 12.972 31.256 14.652 31.256Z" fill="white"/>
</g>
<defs>
<filter id="filter0_i_37_1116" x="27.62" y="9.79999" width="49.8671" height="29.2" filterUnits="userSpaceOnUse" color-interpolation-filters="sRGB">
<feFlood flood-opacity="0" result="BackgroundImageFix"/>
<feBlend mode="normal" in="SourceGraphic" in2="BackgroundImageFix" result="shape"/>
<feColorMatrix in="SourceAlpha" type="matrix" values="0 0 0 0 0 0 0 0 0 0 0 0 0 0 0 0 0 0 127 0" result="hardAlpha"/>
<feOffset dy="4"/>
<feGaussianBlur stdDeviation="2"/>
<feComposite in2="hardAlpha" operator="arithmetic" k2="-1" k3="1"/>
<feColorMatrix type="matrix" values="0 0 0 0 0 0 0 0 0 0 0 0 0 0 0 0 0 0 0.25 0"/>
<feBlend mode="normal" in2="shape" result="effect1_innerShadow_37_1116"/>
</filter>
<filter id="filter1_i_37_1116" x="3.19604" y="9.44" width="27.5039" height="29.92" filterUnits="userSpaceOnUse" color-interpolation-filters="sRGB">
<feFlood flood-opacity="0" result="BackgroundImageFix"/>
<feBlend mode="normal" in="SourceGraphic" in2="BackgroundImageFix" result="shape"/>
<feColorMatrix in="SourceAlpha" type="matrix" values="0 0 0 0 0 0 0 0 0 0 0 0 0 0 0 0 0 0 127 0" result="hardAlpha"/>
<feOffset dy="4"/>
<feGaussianBlur stdDeviation="2"/>
<feComposite in2="hardAlpha" operator="arithmetic" k2="-1" k3="1"/>
<feColorMatrix type="matrix" values="0 0 0 0 0 0 0 0 0 0 0 0 0 0 0 0 0 0 0.25 0"/>
<feBlend mode="normal" in2="shape" result="effect1_innerShadow_37_1116"/>
</filter>
<filter id="filter2_i_37_1116" x="26.62" y="9.79999" width="49.8671" height="29.2" filterUnits="userSpaceOnUse" color-interpolation-filters="sRGB">
<feFlood flood-opacity="0" result="BackgroundImageFix"/>
<feBlend mode="normal" in="SourceGraphic" in2="BackgroundImageFix" result="shape"/>
<feColorMatrix in="SourceAlpha" type="matrix" values="0 0 0 0 0 0 0 0 0 0 0 0 0 0 0 0 0 0 127 0" result="hardAlpha"/>
<feOffset dy="4"/>
<feGaussianBlur stdDeviation="2"/>
<feComposite in2="hardAlpha" operator="arithmetic" k2="-1" k3="1"/>
<feColorMatrix type="matrix" values="0 0 0 0 0 0 0 0 0 0 0 0 0 0 0 0 0 0 0.25 0"/>
<feBlend mode="normal" in2="shape" result="effect1_innerShadow_37_1116"/>
</filter>
<filter id="filter3_i_37_1116" x="2.19604" y="9.44" width="27.5039" height="29.92" filterUnits="userSpaceOnUse" color-interpolation-filters="sRGB">
<feFlood flood-opacity="0" result="BackgroundImageFix"/>
<feBlend mode="normal" in="SourceGraphic" in2="BackgroundImageFix" result="shape"/>
<feColorMatrix in="SourceAlpha" type="matrix" values="0 0 0 0 0 0 0 0 0 0 0 0 0 0 0 0 0 0 127 0" result="hardAlpha"/>
<feOffset dy="4"/>
<feGaussianBlur stdDeviation="2"/>
<feComposite in2="hardAlpha" operator="arithmetic" k2="-1" k3="1"/>
<feColorMatrix type="matrix" values="0 0 0 0 0 0 0 0 0 0 0 0 0 0 0 0 0 0 0.25 0"/>
<feBlend mode="normal" in2="shape" result="effect1_innerShadow_37_1116"/>
</filter>
</defs>
</svg>
